<svg width="12" height="10" viewBox="0 0 12 10" fill="none" xmlns="http://www.w3.org/2000/svg"><path fill-rule="evenodd" clip-rule="evenodd" d="M1.146 1.146A.5.5 0 0 1 1.5 1h6a.5.5 0 0 1 .5.5v4a.5.5 0 0 1-.5.5h-2a.5.5 0 0 0 0 1h2A1.5 1.5 0 0 0 9 5.5v-4A1.5 1.5 0 0 0 7.5 0h-6A1.5 1.5 0 0 0 0 1.5v4A1.5 1.5 0 0 0 1.5 7a.5.5 0 0 0 0-1 .5.5 0 0 1-.5-.5v-4a.5.5 0 0 1 .146-.354zm3 3A.5.5 0 0 1 4.5 4h2a.5.5 0 0 0 0-1h-2A1.5 1.5 0 0 0 3 4.5v4A1.5 1.5 0 0 0 4.5 10h6A1.5 1.5 0 0 0 12 8.5v-4A1.5 1.5 0 0 0 10.5 3a.5.5 0 0 0 0 1 .5.5 0 0 1 .5.5v4a.5.5 0 0 1-.5.5h-6a.5.5 0 0 1-.5-.5v-4a.5.5 0 0 1 .146-.354z" fill="#3f3f3f" fill-opacity=".7"></path></svg>