<svg width="12" height="10" viewBox="0 0 12 10" fill="none" xmlns="http://www.w3.org/2000/svg"><path fill-rule="evenodd" clip-rule="evenodd" d="M1.5 0A1.5 1.5 0 0 0 0 1.5v1a.5.5 0 0 0 .26.439l5.5 3a.5.5 0 0 0 .48 0l5.5-3A.5.5 0 0 0 12 2.5v-1A1.5 1.5 0 0 0 10.5 0h-9zm-.354 1.146A.5.5 0 0 1 1.5 1h9a.5.5 0 0 1 .5.5v.703L6 4.93 1 2.203V1.5a.5.5 0 0 1 .146-.354zM1 4.5a.5.5 0 0 0-1 0v4A1.5 1.5 0 0 0 1.5 10h9A1.5 1.5 0 0 0 12 8.5v-4a.5.5 0 0 0-1 0v4a.5.5 0 0 1-.5.5h-9a.5.5 0 0 1-.5-.5v-4z" fill="#3f3f3f" fill-opacity=".7"></path></svg>