<svg width="100%" height="14px" viewBox="0 0 120 15" preserveAspectRatio="none" fill="red" xmlns="http://www.w3.org/2000/svg"><g opacity=".20"><path d="M.196 3.647C28.256 14.243 119.302 2.47 119.302 2.47z" opacity=".15"></path><path d="M118.23 7.944a5.316 5.316 0 0 0-.651.33l-1.401.027a8.538 8.538 0 0 1-.393.864c-.298.231-.639.463-.934.67.938.217 1.35.209 2.065.511a6.46 6.46 0 0 1-.538.553l-2.19.036h-1.158a2.467 2.467 0 0 1-.341-.31l-1.899.56h-.632a9.242 9.242 0 0 0-.938-.215c-.059.432-.922.074-1.232.345-1.26-.086-2.124-.6-2.571-.102a3.84 3.84 0 0 0-1.719-.223c-.632.726-.785-.499-1.456.227-.168-.318-1.609-.322-1.962 0a48.745 48.745 0 0 0-6.793.27c-1.228.119-3.481.209-4.497-.172-.393.083-.2.29-.322.448-.24-.051-.844.05-.754-.13-.09-.137-.341-.118-.55-.121-.262.062-.258.2-.286.313-3.182-.784-5.612.856-8.747 0 0 .499-1.068.103-1.177.624l-3.261.208c-1.374.15-2.944-.031-4.396-.055-.608-.207-1.106-.07-1.26.17l-2.994-.044a3.139 3.139 0 0 0-2.174 0l-1.962-.106c-1.154-.196-1.825-.196-1.676.133l-.369-.023h-1.848c-.173 0-.393.043-.605.055l-1.373-.177c-.526-.196-.844.146-1.087.24l-1.962-.138c-.86-.22-1.084.083-1.397 0l-3.583-.286a4.644 4.644 0 0 1-1.684.133c-.059-.074-.078-.145-.137-.215l-.577-.052c-.588.058-1.172.147-1.75.267l-.577-.055c-.106-.055-.224-.09-.393-.149l-1.154-.106h-1.024c-.231.043-.459.087-.698.153a2.225 2.225 0 0 0-.29-.259c-.393-.02-.684 0-1.029 0l-.985-.106-.938.22c-.6 0-1.005-.18-1.2-.573-.393.07-.742.138-1.104.185l-.392-.051-1.939.215c-1.032-.098-1.962.052-2.994-.317-.251.078-.502.157-.71.243-.393-.031-.683-.031-1.032-.035-.589.392-1.845-.306-2.563.035l-1.774-.29.271-.62c.173-.087.341-.173.498-.24l.95.247c.546.271.624-.22.95-.165.62 0 1.24-.031 1.887-.035l1.57.224 3.399-.208 1.177.149c.593.027 1.224.059 1.805.11a5.32 5.32 0 0 1-.392-.597c.483-.255 1.628.106 1.381-.494 1.86 0 4.113.64 5.408-.29a2.786 2.786 0 0 1 1.817-.491c.14.138.297.26.467.36.108.19.25.358.42.495.494.161.647-.164.93-.25.247-.224.534-.452.82-.68l5.18.193c.809.353 1.178-.098 1.656-.2l.785.054 1.158.173c1.052.26.887-.16 1.252-.118.143-.043.29-.072.44-.086 1.322.443 1.502-.133 2 0 .225.079.448.16.711.267.15-.079.29-.137.432-.2l.392.027c1.3.26.73-.345 1.488-.235.157.031.345.086.537.141.357-.07.703-.122 1.052-.169.235.158.443.353.616.577h.208c.785-.392 2.54-.432 3.532-.392.714-.173 1.986.02 2.951.13.73-.374 1.68-.228 2.402-.134l1.962.074 1.962.063c.287-.443.91-.153 1.1-.392.411-.145 1.644-.11 1.938.172h.412c.848-.392.914-.18 1.907-.494l4.71.216c.337-.04.117-.29.466-.216.832-.188.358.365 1.103.357.538-.487 1.507-.082 1.903-.51 1.01.557 2.414-.102 3.713.141l6.279-.592a8.277 8.277 0 0 1 2.877.321h.576c.444.024.927.067 1.37.114.079-.157.192-.294.267-.432l4.909.067c1.448-.392 2.418-.157 3.995-.247.314-.114.53-.345.903-.35h.785a8.608 8.608 0 0 1 2.782-.14l1.57-.04c.404.616-.856.605-1.672.62z" opacity=".15"></path><path d="M114.789 7.552c-.373 0-.589.235-.903.35-1.57.09-2.547-.15-3.995.246l-4.91-.066c-.074.137-.188.274-.266.431-.444-.047-.927-.09-1.37-.114h-.577a8.27 8.27 0 0 0-2.877-.321l-6.279.592c-1.298-.243-2.703.416-3.712-.141-.392.428-1.366.024-1.903.51-.746 0-.271-.545-1.103-.357-.35-.075-.13.177-.467.216l-4.71-.216c-.992.314-1.059.11-1.907.494h-.412c-.294-.282-1.526-.317-1.938-.172-.189.243-.813-.047-1.1.392L74.4 9.333l-1.963-.074c-.722-.094-1.671-.24-2.401.133-.966-.11-2.237-.302-2.951-.13-.978-.058-2.747 0-3.532.393h-.208a2.608 2.608 0 0 0-.589-.628 17.2 17.2 0 0 0-1.052.17 9.496 9.496 0 0 0-.537-.142c-.758-.11-.189.494-1.488.235l-.392-.027-.067.224-.365-.024a16.057 16.057 0 0 0-.71-.267c-.498-.145-.679.432-2.002 0a3.857 3.857 0 0 1-.243-.561c.165-.122.338-.27.542-.393 1.295.126 1.436-.07 2.193-.09.428.232.962.126 1.354.196.393.071.758.11 1.154.177 2.402-.392 3.713-.18 5.67-.369a2.657 2.657 0 0 0 2.053-.227c-1.389-.358-1.334.03-1.985 0a5.668 5.668 0 0 1-.483-.342 12.28 12.28 0 0 1-4.71-.24c-.53.11-1.024.244-1.514.35-.467.04-.977.078-1.456.141l-1.178-.62c-1.361-.314-2.052-.35-2.625-.506l-1.491.235c-.762-.102-1.519-.2-2.323-.278l.239-.758.977.071c1.382.62 1.57.133 2.355.169.099.1.212.185.337.251.393-.04.817-.082 1.209-.15l2.225.59a2.112 2.112 0 0 1 1.711-.436c.326.428 1.178-.075 1.825 0 .243-.126.867-.137 1.24-.275l.816.043h.165l-.102.334c.444.047.922.118 1.354.184.468-.16.965-.215 1.456-.16l.542-.644.785.035c.188.072.372.156.549.251.392-.141.855-.259 1.303-.372.118.027.227.074.341.102l.612.023c.107.237.238.462.393.671.687-.541 2.017 0 2.884-.435 1.119.294 1.42.227 1.727.172.126.06.243.14.345.236-.16.133-.318.263-.526.416.062.06.112.13.15.208l1.393.043c-.695.275-1.225.392-1.425.07l-1.012.079c-2.123.35-4.427-.11-5.887.542.852.22 1.268.353 1.53.157 3.293.22 7.457-.362 11.044.266l1.103-.423c1.942 0 4.171.266 5.749-.087-.067.09.04.157.153.204.844.087 1-.526 1.57-.608l1.138.22c.294.616 1.248-.212 1.962-.087.636.099 1.315.17 1.911.244.918-.063 2.677-.18 3.167-.836.177-.047.31-.09.44-.114 1.252-.086 2.539-.145 3.783-.216l-.185.785c.283.18.926.07 1.366.114h.577c.102-.09.2-.157.259-.224h1.962c.365-.16.224-.432.703-.545h.82c.192.223.435.424.624.651.188.228.643.063.961.106.318-.322 1.178-.279 1.688-.557h1.177c.165.18.644.063.965.082.577.353 1.013.232 1.091.436a.737.737 0 0 0 .15.055z" opacity=".45"></path><path d="M111.359 6.96c-.519.278-1.37.235-1.688.556-.318-.043-.785.075-.961-.105-.177-.181-.432-.428-.624-.652 1.091.059 2.189.118 3.273.2zM104.593 7.316c-.059.067-.157.134-.259.224h-.577c-.44-.043-1.083.067-1.366-.114l.185-.785 2.146.114h2.543c-.478.114-.337.393-.702.546l-1.97.015zM98.895 4.813c-.593.745-1.798.153-2.489.62a5.665 5.665 0 0 1-.533-.322l.106-.432 1.29-.416c.578.138 1.12.275 1.65.436l-.024.114zM87.636 3.486a2.602 2.602 0 0 0-.514-.235l.082-.318c.42-.51 1.083-.228 1.636-.306-.098.223.032.522-.33.651-.305.059-.564.122-.874.208z" opacity=".15"></path><path d="M89.268 5.578c-.298-.118-.596-.24-.898-.334-.503-.121-.785.142-1.237.18l-1.071.319c-.075.133-.192.267-.275.423-.392-.05-.785-.102-1.154-.133a3.2 3.2 0 0 1-.258-.538c-1.64-.333-2.053.13-2.822.248h-.393l-1.73-.138-.785.067c-.424.031-.785.067-1.217.075h-.365l-1.177-.036h-.392c-.46.032-.919.036-1.378.063h-.392c-.754.04-1.468.082-2.225.145-.13 0-.263.06-.393.075l-.612-.024c-.114-.027-.224-.074-.341-.102-.813-.196-1.833-.392-1.853.122l-.785-.035c-.36-.04-.757-.102-1.15-.165-.675.333-1.495.314-2.11.44h-.166l-.816-.044a12.307 12.307 0 0 1-.883-.365l-1.142-.059c-.341.322-1.401.393-1.177-.066a2.555 2.555 0 0 1-1.621 0c-.251 0-.55.035-.809.066-.364.393-.969.189-1.306.35l-1.547-.102c-.215-.106-.478-.193-.702-.28-.361.362-1.256.3-1.248.138-.145-.192-.212-.392.07-.22-.85-.062-1.404-.145-1.451.122-.589.024-1.178.055-1.806.067l-1.15-.185-.101.31-1.135-.094-1.746-.259-.11.33-2.103-.196c-.46.365-1.064.168-1.484.176-.247-.25-.294-.596-1.334-.243h-1.177l-2.355-.255c-.353.278-1.177.145-1.723.353-.498-.133-.996-.263-1.491-.416-1.758-.137-2.767.098-4.45.07-.75-.243-1.272-.203-1.083-.36.608-.37 1.303-.2 1.57-.436.455 0 .95.051 1.4.082.326-.416 1.707.26 1.759-.44.392.115.753.232 1.083.366 1.648-.028 3.861.074 5.69-.126.424.095.86.161 1.287.248.26-.02.616.149.785-.04.612-.074 2.021-.055 2.468.467l.366.036c.847-.283 1.255-.142 1.514-.299-.094-.349.695-.215 1.08-.25.682-.06.427.215 1.035.517.687-.443 1.668-.27 1.963-.584 2.056.549 4.105 0 6.31.211.164.134.31.289.436.46.353-.067.714-.161 1.071-.252.279-.094.597-.188.867-.263 1.613.829 2.324-.867 3.568.087.255-.032.584.121.785-.07-.13-.393.42-.295.863-.272-.043.157-.212.444.282.444.727.2 1.264-.365 1.704-.46l1.746.08 4.65.305c.255 0 .483.04.644-.09-.137-.392.42-.322.867-.306-.114.11.04.16.142.231.718-.062.977-.259 1.813-.164-.079.294.44.196.447.467 2.355-.467 4.847-.126 7.456-.452-1.53-.584-3.85-.631-5.239-.365-.69.114-.353-.215-.926-.231-1.499.392-3.39-.059-4.972.149-1.425.106-3.689-.031-4.796.231l-1.122-.255c-.059-.227-.114-.459-.177-.663.554-.067 1.06-.11 1.605-.157.28-.392 1.217-.078 1.806-.121L72 3.227c.329-.216.69-.378 1.071-.479.624.114 1.256.208 1.888.299 2.064-.212 4.27 0 6.35-.13a19.26 19.26 0 0 0 3.194-.149c.89.043 1.774.102 2.7.165l-.082.318-1.064.318c-.341.514.832.266 1.303.341h.153c.62.162 1.258.249 1.9.259l1.177.11c.031.18.027.36.063.541-.055.228-.114.452-.165.656l-1.22.102z" opacity=".70"></path><path d="M73.072 2.748a3.67 3.67 0 0 0-1.099.412l-1.962-.074c.236-.263.428-.503.62-.746l2.182-.031.26.44z" opacity=".15"></path><path d="M42.497 12.485c-1.483.11-2.237.683-3.36.216h-1.235c-1.044.274-2.684-.146-3.995-.338-.687 1.009-2.559.141-3.497.546-1.044-.122-1.57-.585-2.676-.723-1.005.432-2.394.095-2.622.829a5.703 5.703 0 0 1-1.365-.338c-.672.326-1.531.051-2.335-.035-.393.074-.785.153-1.178.22a6.935 6.935 0 0 0-2.182-.33 7.725 7.725 0 0 1-2.15-.208c-.66.11-1.762-.267-1.963.365a8.69 8.69 0 0 0-1.57-.24 8.393 8.393 0 0 0-1.502.067c.498.663 1.985.785 1.762 1.44-1.205.624-2.787-1.09-3.407-.172-.392-.146-1.2-.212-1.177-.428-1.095-.463-1.154-1.26-2.268-1.81-.393-.203-1.083-.513-.703-.784.283-.13.62-.267.954-.393l1.036.228c.282.18.557.393.832.58.435-.054 1.122.024 1.291-.2a1.962 1.962 0 0 0 1.742.118c.444-.121.887-.239 1.319-.34.997.164 1.93.27 2.916.423.985.153 1.883.282 2.857.392.596-.212 1.648.036 2.425-.098.153.055.341.138.538.197h1.279l1.774.29c.718-.341 1.962.35 2.563-.035.349 0 .65 0 1.032.035.208-.086.459-.165.71-.243 1.02.369 1.962.22 2.994.317l1.939-.215.392.05c.361-.046.73-.113 1.103-.184.196.393.6.581 1.2.573l.939-.22.985.106c.345 0 .651-.02 1.028 0 .104.078.202.165.29.26.24-.067.467-.11.699-.154h1.024l1.154.106c.184.04.294.075.408.13z" opacity=".06"></path><path d="m27.392 5.888-.043.11-.785-.024c-.443-.059-.918-.149-1.362-.22l-.957-.16c-.26.415-1.146-.122-1.853.039l-.129.298c-.093.066-.19.127-.29.18l.043-.105c-.393-.177-.785-.393-1.178-.542l-.95-.184c-.435 0-.45.33-.784.286l-.557-.106-.283.616c-.392.106-.604.279-.895.15-1.515-.338-.6.22-.887.447.038.108.058.222.06.337a14.71 14.71 0 0 0 2.213.13l1.715-.024c.18.085.367.16.557.224.369.05.785.078 1.212.098.168-.07.332-.15.491-.24l1.73.291c.601.208 1.205.432 1.818.612-.242.129-.491.243-.746.342-.337-.122-.604 0-1.052.035-1.57.078-2.814-.495-3.708-.082-.754-.393-1.59-.31-2.41-.295a5.22 5.22 0 0 1-1.197-.082c-.4-.082-.77-.267-1.075-.538l-1.727.522c.138.169.236.33.365.518l-.345.69c.69.244 1.354.46 2.056.688-.867.294-1.381.043-1.801.157l-.393-.09c-.537.066-1.11.14-1.652.184l-.165-.04a43.352 43.352 0 0 1-1.691-.667l-.177-.023c-.588.392-1.177.13-1.824 0L7.13 9.027l-.267.04c.018.204.056.407.113.604.044.247.868.259.605.534l-.173.278c-.12.018-.238.056-.345.114l-1.056-.22c-.518-.274-.13-.42-.11-.6-.106-.232-.62-.247-.942-.393-1.138-1.055-1.518-.64-2.703-1.09-.295-.362-.577-.785-.86-1.178.357-.047.71-.07 1.103-.121l.392-.554.954.346.785-.507c.42.173.863.393 1.28.581.152-.008.306-.002.458.02.107.053.21.114.306.184.817.369 1.178.118 1.762-.267.452-.22.958.212 1.53 0l.213-.392c.098-.255.141-.502.227-.738-.274-.075-.514-.13-.784-.208a6.471 6.471 0 0 0-.326-.55 1.994 1.994 0 0 0-1.31-.392l-.134-.063c0-.36-.04-.698-.063-1.04-.393-.117.228-.31-.055-.584-.447-.145-.871-.255-1.264-.416.257-.053.509-.127.754-.22.204-.075.403-.163.596-.263-.298-.24-.55-.475-.836-.722.585-.255 1.178-.028 1.57-.184l1.515.592-.373.687c.294.094.593.192.899.267.879-.424 1.738-.106 2.614.125-.197.138-.393.251-.597.393 1.37.467 1.688.168 2.586.628 1.256.074.91-.283 1.61-.31-1.677-.785-2.414-.071-3.168-.722.183-.265.381-.52.593-.762l.628-.07c1.095 0 2.138.05 3.233.054 1.178-.113 2.57.295 3.948.216.342 0 .683-.023 1.032-.055a4.458 4.458 0 0 0 2.355.189l.353.059-.255.624c-1.216.094-1.71.47-2.382.357l-.746-.126c-.223.028-.392.07-.643.118-.294-.102-.589-.208-.891-.29-.706-.228-.86.317-1.362.29l-1.628-.432c-.648-.165-.37.338-.864.479.31.067.62.145.934.204.589.298.958-.137 1.464-.04.275.146.542.315.812.48.785.412.656-.33 1.315-.18 1.405.686 1.409.078 2.139.25.808.503 1.048.13 1.464.361a.652.652 0 0 0 .117.224c.283.141.573.259.868.392l1.518.22-.247.64z" opacity=".70"></path><path d="M9.98 6.79c-.573.216-1.08-.215-1.53 0-.456-.25-.911-.51-1.386-.745.267-.134.47-.236.683-.361.267-.06.863.098.785-.232h1.095c.27.079.51.134.784.208-.086.236-.129.483-.227.738l-.204.392z" opacity=".15"></path><path d="M6.671 7.065a2.21 2.21 0 0 0-.294-.208 2.355 2.355 0 0 0-.459-.02c-.416-.188-.86-.392-1.28-.58l-.784.506-.954-.345-.392.553c-.393.051-.746.075-1.103.122-.593-.628-.852-1.091-.573-1.57C.145 4.946.11 4.93 0 4.683l.436-.53c.078-.165.136-.339.172-.518a5.765 5.765 0 0 0-.153-.667l.966-.035c-.087-.267-.193-.577-.244-.84.206-.076.415-.14.628-.192l1.7.062c.56.055 1.114.04 1.68.067 0-.074-.032-.16-.032-.231l.683-.444 1.142-.149c.286.247.537.483.835.722-.193.1-.392.188-.596.263a4.945 4.945 0 0 1-.754.22c.393.16.817.27 1.264.416.283.275-.322.467.055.585.024.341.051.678.063 1.04-.68 0-1.35.062-2.037.027-.29-.204-.628-.392-.93-.585l-1.009.455.138.848c.392 0 .698.035 1.11.067l.978.412.98.369c.464.235.919.494 1.374.75-.6.384-.946.635-1.778.27z" opacity=".55"></path><path d="M5.357 4.895 3.869 4.35a.322.322 0 0 0-.121-.17l1.13-.282c.302.185.64.393.93.585-.137.141-.314.251-.451.412z" opacity=".15"></path><path d="M118.01 8.921c-.514.26-1.059.134-2.237.244.147-.28.278-.569.393-.864l1.401-.027c.112.065.22.139.322.22a.427.427 0 0 1 .121.427zM113.513 7.026c.357-.298.824-.192 1.24-.224l-.161.656c-.067-.2-.502-.079-1.079-.432zM113.022 10.946c-.883.079-1.773.542-2.24.252l1.899-.562c.104.114.218.218.341.31zM109.71 11.523c-.345.07-.69.142-1.044.236-.223-.09-.498-.157-.73-.224l-4.399.126c-1.334.412-3.332.13-5 .216-1.263.423-3.308 0-4.819.278-4.98.404-10.52.247-15.623.546-.055.204-.56.074-.934-.228.102-.522 1.158-.126 1.178-.624 3.14.84 5.564-.785 8.747 0 .028-.114.024-.251.287-.314.208 0 .459 0 .55.122-.091.18.513.078.752.13.122-.158-.074-.366.322-.448 1.017.392 3.27.29 4.498.172a48.73 48.73 0 0 1 6.793-.27c.369-.314 1.809-.31 1.962 0 .671-.726.824.498 1.456-.228.582-.057 1.17.02 1.719.224.447-.499 1.311 0 2.57.102.31-.271 1.178.086 1.233-.346.316.056.629.128.937.216l-.455.314zM104.346 10.032c.309-.22.683-.333 1.063-.318.777.542-.895.49-1.063.318zM103.18 9.918c-1.793.785-2.904.263-4.442.33 1.593-.29 2.923-.506 4.442-.33zM100.716 4.71c-.471.428-1.7.424-1.825.106l.023-.113c-.53-.161-1.071-.299-1.648-.436l.722-.451c.93-.106.746.298 1.177.663.149-.023.294-.06.436-.11h.981a.397.397 0 0 0 .177.114l-.043.228zM98.353 6.987l-1.268-.35c.507-.22 1.688-.353 1.708.236-.13.023-.263.067-.44.114zM95.814 6.967c-.88-.098-1.593.122-2.43.18-1.306-.039-2.26-.164-3.084-.152h-.985c-.098-.252-.785-.13-.663-.444l.616-.961 1.217-.098 1.962.027c.353-.11.604-.443 1.06-.306.784-.035 1.57-.075 2.354-.09.172.117.35.224.534.321-.993.354-1.833.436-2.39.864.392.341.785-.2 1.213-.106.247.16 1.02.192 1.448.443l-.852.322zM93.926 10.53c.087-.341.46-.518 1.095-.423.134.455-.506.698-1.095.423zM91.619 4.09l-1.032.193-1.178-.11a8.03 8.03 0 0 1-1.895-.247l.11-.428c.31-.086.569-.15.875-.208.314.05.593.074.946.125.345-.062.647-.125 1.036-.211.043.635.483.53.844.557.108.05.22.09.337.118l-.043.211zM81.31 2.917c-2.08.137-4.286-.082-6.35.13a49.735 49.735 0 0 1-1.888-.299l-.247-.44c1.534-.501 3.532.06 5.02-.392 1.07.287 2.625.15 3.555.644l1.805-.157c.196-.133 1.413-.24 1.299.345a19.26 19.26 0 0 1-3.195.17zM69.49 12.626c-.62.267-1.272.35-1.26.169.152-.236.65-.377 1.26-.169zM70.023 3.086c-.589.043-1.527-.27-1.805.122-.546.047-1.052.09-1.606.156l-1.38-.062.03-.114-.816-.585a7.143 7.143 0 0 0-1.428.24h-.393l-1.554-.095A5.775 5.775 0 0 1 60 3.031l-.392-.028-.895.393-1.962-.122c-1.036-.106-2.461-.565-3.846-.392l-4.137-.094c-.913.106-1.836.097-2.747-.028-.734-.534-1.605-.031-2.606 0-.062.067-.164.122-.235.208h-.2c-.267-.07-.49-.141-.726-.184l-1.629.047c-.89-.032-1.754-.083-2.559-.083a.499.499 0 0 1-.121-.239c.286-.22.569-.44.812-.663 1.11.153 2.747-.715 3.242.447.533-.832 1.342-.416 1.671-.29l1.503-.287c.974-.078.393.283.99.628.337-.267.702-.51 1.04-.785 1.608.251 3.288.032 4.658.26.055-.315.914-.299 1.467-.213 1.288.098 2.575.18 3.87.26a.275.275 0 0 0 .365.023c-.09-.526 1.314-.279 1.597-.671.487.031.538.392.785.706.49-.13.973-.243 1.5-.349.297.243 1.137.04 1.475.283 1.428-.24 1.134.49 1.962.105l.059-.2c.89.471 2.602-.337 3.03.456.258-.036.623.117.784-.079.49 0 1.41-.341 1.915.196-.22.248-.424.487-.647.75z" opacity=".06"></path><path d="M68.846 7.929a2.657 2.657 0 0 1-2.053.227c-1.962.189-3.269-.031-5.67.369-.393-.067-.75-.13-1.154-.177l-1.178-.074c-.027-.047-.102-.07-.169-.122-.757.02-.898.216-2.193.09-.204.126-.393.275-.542.393.066.193.148.38.243.561-.149.014-.296.043-.44.086-.219-.102-.486-.188-.71-.274l-.392-.028-.306-.227-.392-.028c-.18.169-.35.314-.577.502l-.785-.054-.263-.358c-.706.244-1.346.29-1.393.558l-5.18-.193c-.558-.086-1.154-.196-1.72-.27-.564-.075-.439.302-.918.345a2.786 2.786 0 0 0-1.848.494c-.498-.14-.965-.25-1.472-.392-.322-1.126-1.57.196-2.696-.392-.392.321-.961.078-1.424-.04l-2.355-.29-.977-.122c-1.177.29-2.257-.22-2.559.326a9.78 9.78 0 0 1-2.433-.671c-.133 0-.27.031-.392.035 0 .255.043.53.066.785.503.35-.11.393-.255.628.044.106.07.219.079.334.106.059.216.098.365.164.643.114 1.28.252 1.919.393.84.279.914-.232 1.683-.106.393.137 1.146.141 1.06.475l-3.406.2-1.57-.224c-.648 0-1.268.024-1.888.035-.326-.054-.392.436-.95.165l-.95-.247c-.156.067-.325.153-.498.24a8.037 8.037 0 0 1-.887-.393c-.207-.031-.412-.07-.616-.11-.078.079-.192.126-.259.185l-.098.211-2.233-.784a52.956 52.956 0 0 1-2.013-.283 84.25 84.25 0 0 1-2.056-.687.905.905 0 0 0-.161-.13c.588-.54.055-.82.141-1.078l1.719-.495c.301.274.67.463 1.067.55a5.22 5.22 0 0 0 1.197.082c.82 0 1.656-.079 2.41.294.895-.412 2.15.161 3.708.083.448-.043.715-.157 1.052-.036.255-.099.504-.213.746-.341a29.93 29.93 0 0 1-1.817-.612l-1.73-.29c-.16.089-.323.169-.491.239-.424-.02-.844-.047-1.213-.098a5.324 5.324 0 0 1-.557-.224l-1.715.024c-.74.012-1.48-.031-2.214-.13a1.056 1.056 0 0 0-.05-.35c.29-.239-.625-.812.882-.474.29.13.499-.043.895-.15l.283-.615.557.106c.326.043.341-.28.785-.287l.95.185c.486.16.937.321 1.428.467l.13-.299c.706-.16 1.593.393 1.852-.039l.957.16-.176.433a3.14 3.14 0 0 0 1.538-.212l.785.023.043-.082.251-.628.122-.302.392.059c-.188.157.334.117 1.084.36 1.683.028 2.692-.207 4.45-.07.494.153.993.283 1.491.416.538-.208 1.37-.075 1.723-.353l2.355.255c.392 0 .784.023 1.177 0 .435-.298 1.57-.326 1.409.023l-.075.22c.42 0 1.024.189 1.483-.176l2.104.196.11-.33 1.746.26 1.134.093.102-.31 1.15.185c.628 0 1.217-.043 1.806-.067.047-.267.6-.184 1.452-.122-.283-.157-.216.028-.071.22 0 .161.887.224 1.248-.137.224.086.486.173.702.278l1.546.103c.338-.161.942.035 1.307-.35.26-.031.558-.059.809-.066a2.555 2.555 0 0 0 1.62 0c-.223.467.836.392 1.178.066l1.142.06c.29.129.585.258.883.364-.373.137-.997.15-1.24.275-.644-.06-1.5.443-1.825 0a2.112 2.112 0 0 0-1.711.435l-2.225-.588c-.393.066-.82.11-1.209.149a1.35 1.35 0 0 1-.337-.251l-1.08.263c-.42-.122-1.4.082-1.275-.432l-.977-.07-.255.757c.785.078 1.57.176 2.323.278l1.491-.235c.573.157 1.264.192 2.626.506l1.177.62c.479-.063.989-.102 1.456-.141.49-.106.985-.24 1.515-.35a12.28 12.28 0 0 0 4.709.24c.155.122.316.236.483.341.631.028.588-.36 1.978-.003z" opacity=".55"></path><path d="M65.235 12.752c-.71.21-1.464.21-2.174 0a3.14 3.14 0 0 1 2.174 0zM61.083 12.65c-.745.259-1.57.317-1.676.133-.149-.33.522-.33 1.676-.133zM59.039 12.76c-.785.541-1.205.223-1.849 0 .632-.008 1.225-.016 1.849 0zM56.586 12.814c-1.036.236-2.072.295-2.46.063.243-.094.56-.435 1.086-.24l1.374.177zM52.151 12.74c-.66.204-1.727.392-1.397 0 .314.082.538-.22 1.397 0zM45.523 12.56c-1.177.258-2.52.392-2.465 0 .579-.12 1.163-.21 1.75-.268l.578.052c.074.05.094.121.137.215zM35.453 2.686c-1.083.227-.526-.48-1.31-.17-1.135-.078-2.548.028-3.811.056l-.954-.138c-.353-.168-.706-.333-1.02-.494a3.316 3.316 0 0 0-1.83.51c-.235-.031-.51-.094-.745-.122l-.353-.058a4.458 4.458 0 0 1-2.355-.189c-.349.032-.69.043-1.032.055-1.377.079-2.747-.33-3.948-.216-1.095 0-2.138-.039-3.233-.055-.216-.349-.463-.686-.71-1.079A20.735 20.735 0 0 1 17.058.68c.37.036.71.06 1.04.07h.966c.69.007 1.377.07 2.056.19.134-.264.495-.11.852 0s.718.215.828-.146c.392.118.969.392 1.48.251-.173-.486.949-.392 1.263-.13-.122.095 0 .165.106.248.204 0 .42.094.588 0-.129-.393.6-.251.785-.428A1.146 1.146 0 0 0 28.08.57c1.177-.102 2.614.985 3.112.106.828 0 2.115.546 2.402 0-.236-.518.942-.16.679-.675 2.86-.047 1.832 1.22 2.967 2.221-.59.134-1.19.303-1.786.464zM8.54 5.452c.082.33-.515.173-.785.232-.212.125-.416.227-.683.36l-.981-.368-.99-.412.24-.369c.153-.16.314-.27.452-.412.686.035 1.357-.035 2.036-.028l.153.048c.47-.028.934.11 1.311.392.122.18.236.392.326.55a12.36 12.36 0 0 1-1.08.007zM8.555 1.026c-.392.157-.993-.071-1.57.184l-1.142.15c-.16-.181-.349-.37-.506-.527l.298-.47c.49.108.995.145 1.496.11.472-.067.952.045 1.346.313.01.084.037.166.078.24z" opacity=".06"></path><path d="M95.869 5.103c-.785 0-1.57.055-2.355.09.087-.337.165-.651.248-.97h.364c.62.142 1.28.283 1.857.444l-.114.436z" opacity=".45"></path><path d="M98.353 6.987c-.49.655-2.249.785-3.167.836-.596-.075-1.275-.146-1.911-.244l-1.44.318a4.474 4.474 0 0 1-1.652-.44c-.554.083-.71.695-1.57.609-.114-.047-.22-.114-.153-.204-1.57.353-3.807.07-5.75.086l-1.083.412c-3.583-.628-7.75-.047-11.043-.267-.263.197-.679.063-1.53-.157 1.475-.651 3.779-.192 5.886-.541.346-.051.69-.114 1.044-.192a.739.739 0 0 0-.15-.208c.209-.154.366-.283.527-.416a1.367 1.367 0 0 0-.346-.236c-.306.055-.608.122-1.726-.173-.868.444-2.198-.106-2.885.436a3.59 3.59 0 0 1-.392-.671c.13 0 .263-.059.392-.075a71.302 71.302 0 0 1 2.225-.145h.393c.459-.027.918-.031 1.377-.063h.393l1.177.036h.365c.416 0 .785-.043 1.217-.075l.784-.067 1.731.138h.393c.784-.118 1.177-.581 2.821-.247.072.19.16.375.267.549.361.031.758.082 1.154.133.082-.157.2-.29.275-.423l1.07-.318c.46-.04.735-.302 1.237-.18.302.093.6.215.899.333l-.616.961c-.122.314.565.193.663.444h.985c.824 0 1.778.113 3.085.153.835-.06 1.55-.279 2.429-.18l.86-.334h.392l1.373.412z" opacity=".55"></path><path d="m67.845 4.506-1.746-.078c-.44.094-.978.66-1.704.46-.494 0-.325-.287-.282-.444-.444-.024-.993-.122-.864.27-.22.193-.549.04-.785.071-1.243-.954-1.962.742-3.567-.086-.27.074-.588.168-.867.263-.357.09-.718.184-1.071.25a2.48 2.48 0 0 0-.448-.458c-2.205-.224-4.254.337-6.31-.212-.31.314-1.291.141-1.962.584-.609-.302-.354-.576-1.036-.518-.393.036-1.178-.098-1.08.252-.259.157-.667 0-1.514.298l-.365-.035c-.448-.522-1.857-.542-2.469-.467-.188.188-.545.02-.785.039-.428-.087-.863-.153-1.287-.247-1.829.2-4.042.098-5.69.125-.33-.133-.707-.251-1.083-.365-.051.699-1.433.024-1.758.44-.452-.032-.946-.067-1.402-.083-.259.236-.953.067-1.57.436l-.392-.059-.121.302c-.813-.184-1.629-.369-2.386-.596a.652.652 0 0 1-.118-.224c-.416-.232-.655.141-1.464-.361-.73-.173-.734.436-2.139-.251-.66-.15-.514.592-1.314.18-.271-.164-.538-.333-.813-.478-.506-.099-.875.337-1.464.039-.314-.06-.624-.138-.934-.204.495-.142.216-.644.864-.479l1.628.432c.503.027.656-.518 1.362-.29.302.082.597.188.891.29.232-.047.42-.09.644-.118l.745.125c.671.114 1.178-.262 2.382-.357l.255-.624c.236.04.507.09.746.122a3.316 3.316 0 0 1 1.829-.51c.314.16.667.326 1.02.494l.95.138c1.264-.028 2.676-.134 3.81-.055.785-.31.232.392 1.315.169.369.133.73.286 1.048.435.569.153.981-.302 1.51-.267l1.425.915 1.178-.514c.412.133.816.282 1.26.44.082-.354.977-.429 1.047-.762h.2c.334.121.699.27 1.025.416a10.403 10.403 0 0 1 1.817-.6c.91.124 1.834.134 2.747.027l4.14.086c1.385-.188 2.81.27 3.846.393l1.962.121 1.177.616a1.213 1.213 0 0 0 1.064-.259c.392.047.785.11 1.15.153.53-.106 0-.659.785-.592.113.031.22.078.337.11l2.005-.098 1.382.062c.063.204.118.436.176.664l1.123.255c1.106-.263 3.37-.126 4.795-.232 1.57-.208 3.474.236 4.973-.149.573 0 .235.345.926.232 1.389-.267 3.708-.22 5.239.365-2.59.325-5.102 0-7.457.45 0-.27-.525-.172-.447-.466-.836-.094-1.095.102-1.813.165-.102-.071-.255-.122-.141-.232-.448 0-1.005-.082-.867.306-.161.13-.393.079-.644.09l-4.62-.31z" opacity=".90"></path><path d="M81.05 6.806c-.667.032-1.334.06-1.993.06.082.156.18.303.294.439l-1.177-.036c.167-.147.343-.284.526-.412l-1.13-.24.121-.45h.369c.392.102.785.18 1.126.259.636.09 1.272.172 1.9.278l-.036.102zM65.231 3.302l-2.005.098c-.118-.032-.224-.079-.338-.11l.13-.447a7.14 7.14 0 0 1 1.428-.24l.817.585-.032.114zM52.497 9.177c-.495.102-.848.553-1.656.2.047-.267.686-.314 1.393-.558l.263.358zM44.84 9.863c-.282.087-.435.412-.93.251a1.778 1.778 0 0 1-.42-.494 2.492 2.492 0 0 1-.467-.361c.479-.043.353-.42.918-.345.566.074 1.178.184 1.72.27-.287.236-.574.456-.82.68zM46.006 2.748a10.4 10.4 0 0 0-1.817.609c-.326-.146-.691-.295-1.025-.416.07-.087.173-.142.236-.208l1.102-.322 1.57.137-.066.2zM42.544 6.484c.734-.18 1.676-.36 1.543.15l-1.543-.15zM41.206 11.59c-.785-.141-1.57-.29-2.311-.443a6.07 6.07 0 0 1-.562.392c-.965-.287-1.51-.184-1.64.051h-1.84a1.008 1.008 0 0 1-.09-.334l-1.767-.215-1.177-.15-3.406.2c-.428-.333-.82-.643-1.256-.957-.15-.067-.26-.106-.365-.165a1.083 1.083 0 0 0-.079-.333c.146-.252.758-.279.255-.628-.023-.255-.047-.53-.066-.785.13 0 .267-.032.392-.035a9.779 9.779 0 0 0 2.433.67c.302-.545 1.39-.035 2.559-.325l.977.122 2.355.29c.463.118 1.012.361 1.424.04 1.142.604 2.375-.719 2.696.392.507.125.974.235 1.472.392-1.295.93-3.532.302-5.408.29.248.6-.898.24-1.381.495.117.207.248.407.392.596.255-.11.518-.231.73-.345.867-.157 2.245.263 3.442.141.97.157 1.962.275 2.916.393l-.695.251zM38.012 2.854c-.53-.035-.942.42-1.515.287-.318-.15-.68-.302-1.048-.436.596-.16 1.177-.322 1.786-.463l.686.283a.499.499 0 0 0 .145.223l-.054.106zM29.378 2.434c-.353-.168-.706-.333-1.02-.494.314.16.682.326 1.02.494zM26.552 5.958a3.14 3.14 0 0 1-1.538.212l.177-.431c.443.07.918.149 1.361.22zM22.279 11.66h-1.28c-.196-.058-.392-.14-.537-.196-.785.134-1.829-.113-2.425.098a58.238 58.238 0 0 1-2.857-.392c-.938-.145-1.92-.259-2.916-.424-.432.102-.875.22-1.319.342l-1.57-.393c.322-.153.648-.306.91-.447.66.263 1.178.07 2.042.392l.263-.494c.541-.043 1.114-.118 1.652-.185.87.079 1.57.189 2.21-.066.678.11 1.341.2 2.012.282l2.233.785.099-.212c.066-.059.18-.106.259-.184.204.039.392.078.616.11.29.14.588.259.887.392l-.28.593zM23.075 2.081zM5.102 5.264a28.01 28.01 0 0 0-1.11-.067l-.138-.848 1.487.546-.24.369zM5.184 2.034c-.565-.027-1.118 0-1.68-.067.04-.18.11-.345.142-.53.482.15 1.008.24 1.507.366 0 .07.031.16.031.231z" opacity=".45"></path><path d="M60.942 3.73a1.213 1.213 0 0 1-1.064.258l-1.177-.616.895-.392.392.027c.318.236.656.48.954.722zM40.657 3.255l-1.178.514-1.467-.915.055-.106c.824 0 1.687.055 2.562.051a.392.392 0 0 1 .028.456z" opacity=".70"></path><path d="M93.506 5.201c-.455-.137-.706.196-1.06.306l-1.961-.027c.05-.204.11-.428.164-.656-.035-.18-.031-.36-.062-.541l1.032-.193c.726.032 1.409.09 2.135.142-.083.318-.161.632-.248.97zM87.514 3.926h-.165c-.47-.075-1.644.172-1.303-.342l1.075-.333c.18.06.352.138.515.235l-.122.44zM68.771 6.182a4.58 4.58 0 0 0-.55-.251c0-.498 1.04-.318 1.853-.122-.448.114-.891.232-1.303.373zM66.895 6.528c-.491-.055-.988 0-1.456.16a29.56 29.56 0 0 0-1.354-.184l.102-.334c.617-.125 1.437-.106 2.112-.44.392.064.785.126 1.15.166l-.554.632zM62.888 3.29c-.804-.067-.267.487-.785.592-.357-.043-.75-.105-1.15-.153a19.656 19.656 0 0 0-.941-.706c.36-.058.716-.15 1.06-.275l1.542.083h.392l-.118.459zM40.657 3.255a.392.392 0 0 0-.047-.46l1.628-.047c.236.044.46.114.726.185-.07.333-.965.392-1.048.761-.443-.16-.847-.306-1.26-.44zM14.866 6.998c-.393.055-.785.11-1.178.185a1.115 1.115 0 0 1-.851-.44c.302-.058.655-.133.957-.212a5.46 5.46 0 0 0-.039-.784l1.346.298c.432.282.212.557.608.926a6.932 6.932 0 0 0-.843.027zM12.319 10.644c-.856-.333-1.382-.141-2.041-.392-.263.141-.589.294-.91.447l-.208-.055c-.978-.55-1.256-.345-1.57-.459.263-.275-.561-.286-.605-.534a3.194 3.194 0 0 1-.121-.624l.267-.039 1.605.393c.635.145 1.236.392 1.824 0l.165.043c.566.24 1.107.447 1.692.667l.165.04-.263.513zM13.641 2.697h-.431c-.876-.231-1.735-.55-2.614-.125-.306-.075-.604-.173-.899-.267l.373-.687.863-.082c1.107.073 2.208.204 3.3.392-.211.245-.409.502-.592.77z" opacity=".55"></path><path d="m10.725 9.443-.164-.023a14.33 14.33 0 0 1-1.02-.589h1.757c.096.102.198.198.306.287l-.879.325zM12.362 6.053l-1.73-.452c.886-.14 1.745-.176 1.828.267l-.098.185zM6.157 7.92c-.486.173-.992-.133-1.397-.352l-.926-.11a1.81 1.81 0 0 1-.302-.236l.322-.463c.302.208.663.412 1.024.612.163-.01.326-.03.487-.062.27.22.522.415.792.612zM4.27 9.337c.003.38-.014.76-.051 1.139-1.472-.095-1.295-.585-2.068-1.323l1.051-.079c-.345-.243-.647-.474-1-.698l.066-.094c1.178.451 1.57.035 2.704 1.09-.208 0-.455-.019-.702-.035z" opacity=".90"></path><path d="M98.738 10.248c-.432.392-1.178.267-1.617.192l-1.22.106c.168-.341.568-.632 1.298-.42.518.028 1.013.079 1.539.122zM97.266 4.263l-1.291.416c-.577-.16-1.236-.302-1.856-.443.22-.183.464-.334.726-.448a4.187 4.187 0 0 1 2.421.475z" opacity=".06"></path><path d="M56.119 9.2zM50.923 6.673a1.056 1.056 0 0 0-.275.208h-.204L49 6.967l-3.332-.165-1.177-.102c.369-.102.745-.223 1.114-.333l.036-.11 1.008-.032 1.346.228c.522.18.844-.157 1.076-.232l1.852.452z" opacity=".45"></path><path d="m2.268 8.282-.066.093.066-.093z" opacity=".70"></path><path d="M16.808 3.42c-.698.027-.353.392-1.609.31-.899-.46-1.216-.161-2.586-.628.212-.154.393-.267.597-.393h.431c.754.64 1.492-.09 3.167.71zM17.012 3.349zM65.231 3.3l.031-.112-.03.113zM9.54 8.812c-.22.058-.392.133-.569.172a40.126 40.126 0 0 1-1.609-.365c-.227-.188-.42-.341-.6-.514.09-.067.208-.102.286-.153 1.648.188 1.978.546 2.492.86z" opacity=".90"></path><path d="M55.683 9.286c-.365-.043-.2.393-1.252.118l-1.157-.173c.227-.188.392-.333.576-.502l.393.028.306.227.392.028c.255.086.522.172.742.274z" opacity=".45"></path></g></svg>